{
	"asset":{
		"generator":"Khronos glTF Blender I/O v3.5.30",
		"version":"2.0"
	},
	"scene":0,
	"scenes":[
		{
			"name":"Scene",
			"nodes":[
				0
			]
		}
	],
	"nodes":[
		{
			"mesh":0,
			"name":"Cube.001_Cube.002",
			"rotation":[
				0.46484577655792236,
				0.5328399538993835,
				-0.5328398942947388,
				0.46484580636024475
			],
			"scale":[
				4.40491247177124,
				4.40491247177124,
				4.40491247177124
			]
		}
	],
	"materials":[
		{
			"doubleSided":true,
			"name":"Material.003",
			"pbrMetallicRoughness":{
				"baseColorFactor":[
					0.800000011920929,
					0.800000011920929,
					0.800000011920929,
					1
				],
				"metallicFactor":0,
				"roughnessFactor":0.5825688242912292
			}
		}
	],
	"meshes":[
		{
			"name":"Cube.001_Cube.002",
			"primitives":[
				{
					"attributes":{
						"POSITION":0,
						"TEXCOORD_0":1,
						"NORMAL":2
					},
					"indices":3,
					"material":0
				}
			]
		}
	],
	"accessors":[
		{
			"bufferView":0,
			"componentType":5126,
			"count":4643,
			"max":[
				0.5669460296630859,
				0.5671110153198242,
				0.495743989944458
			],
			"min":[
				-0.5669749975204468,
				-0.5668110251426697,
				-0.6381769776344299
			],
			"type":"VEC3"
		},
		{
			"bufferView":1,
			"componentType":5126,
			"count":4643,
			"type":"VEC2"
		},
		{
			"bufferView":2,
			"componentType":5126,
			"count":4643,
			"type":"VEC3"
		},
		{
			"bufferView":3,
			"componentType":5123,
			"count":22596,
			"type":"SCALAR"
		}
	],
	"bufferViews":[
		{
			"buffer":0,
			"byteLength":55716,
			"byteOffset":0,
			"target":34962
		},
		{
			"buffer":0,
			"byteLength":37144,
			"byteOffset":55716,
			"target":34962
		},
		{
			"buffer":0,
			"byteLength":55716,
			"byteOffset":92860,
			"target":34962
		},
		{
			"buffer":0,
			"byteLength":45192,
			"byteOffset":148576,
			"target":34963
		}
	],
	"buffers":[
		{
			"byteLength":193768,
			"uri":"data:application/octet-stream;base64,"
		}
	]
}
