{
    "asset" : {
        "generator" : "Khronos glTF Blender I/O v1.6.16",
        "version" : "2.0"
    },
    "scene" : 0,
    "scenes" : [
        {
            "name" : "Scene",
            "nodes" : [
                0,
                1
            ]
        }
    ],
    "nodes" : [
        {
            "mesh" : 0,
            "name" : "Cube",
            "rotation" : [
                0.7071068286895752,
                0,
                0,
                0.7071068286895752
            ],
            "scale" : [
                0.6531654596328735,
                0.017370641231536865,
                0.6941130757331848
            ]
        },
        {
            "mesh" : 1,
            "name" : "Text",
            "rotation" : [
                0.7071068286895752,
                0,
                0,
                0.7071068286895752
            ],
            "scale" : [
                0.0665845051407814,
                0.0665845051407814,
                0.0665845051407814
            ],
            "translation" : [
                -0.10385528206825256,
                -0.6704593300819397,
                0.05380544811487198
            ]
        }
    ],
    "materials" : [
        {
            "doubleSided" : true,
            "name" : "Frame",
            "pbrMetallicRoughness" : {
                "baseColorFactor" : [
                    0.007220609579235315,
                    0.007220609579235315,
                    0.007220609579235315,
                    1
                ],
                "metallicFactor" : 0,
                "roughnessFactor" : 0.515702486038208
            }
        },
        {
            "doubleSided" : true,
            "name" : "Picture Esports",
            "pbrMetallicRoughness" : {
                "baseColorTexture" : {
                    "index" : 0
                },
                "metallicFactor" : 0,
                "roughnessFactor" : 0.7768595218658447
            }
        }
    ],
    "meshes" : [
        {
            "name" : "Cube",
            "primitives" : [
                {
                    "attributes" : {
                        "POSITION" : 0,
                        "NORMAL" : 1,
                        "TEXCOORD_0" : 2
                    },
                    "indices" : 3,
                    "material" : 0
                },
                {
                    "attributes" : {
                        "POSITION" : 4,
                        "NORMAL" : 5,
                        "TEXCOORD_0" : 6
                    },
                    "indices" : 7,
                    "material" : 1
                }
            ]
        },
        {
            "name" : "Text.001",
            "primitives" : [
                {
                    "attributes" : {
                        "POSITION" : 8,
                        "NORMAL" : 9,
                        "TEXCOORD_0" : 10
                    },
                    "indices" : 11
                }
            ]
        }
    ],
    "textures" : [
        {
            "sampler" : 0,
            "source" : 0
        }
    ],
    "images" : [
        {
            "bufferView" : 8,
            "mimeType" : "image/png",
            "name" : "esports"
        }
    ],
    "accessors" : [
        {
            "bufferView" : 0,
            "componentType" : 5126,
            "count" : 114,
            "max" : [
                1.887938141822815,
                2.9296875,
                0.999879777431488
            ],
            "min" : [
                -1.8905192613601685,
                -2.83203125,
                -1.0001201629638672
            ],
            "type" : "VEC3"
        },
        {
            "bufferView" : 1,
            "componentType" : 5126,
            "count" : 114,
            "type" : "VEC3"
        },
        {
            "bufferView" : 2,
            "componentType" : 5126,
            "count" : 114,
            "type" : "VEC2"
        },
        {
            "bufferView" : 3,
            "componentType" : 5123,
            "count" : 270,
            "type" : "SCALAR"
        },
        {
            "bufferView" : 4,
            "componentType" : 5126,
            "count" : 4,
            "max" : [
                1.7697739601135254,
                -0.130859375,
                0.8999037742614746
            ],
            "min" : [
                -1.7671928405761719,
                -0.130859375,
                -0.8996636271476746
            ],
            "type" : "VEC3"
        },
        {
            "bufferView" : 5,
            "componentType" : 5126,
            "count" : 4,
            "type" : "VEC3"
        },
        {
            "bufferView" : 6,
            "componentType" : 5126,
            "count" : 4,
            "type" : "VEC2"
        },
        {
            "bufferView" : 7,
            "componentType" : 5123,
            "count" : 6,
            "type" : "SCALAR"
        },
        {
            "bufferView" : 9,
            "componentType" : 5126,
            "count" : 195,
            "max" : [
                1.9880001544952393,
                0,
                0.009000000543892384
            ],
            "min" : [
                0.04100000113248825,
                0,
                -0.4580000340938568
            ],
            "type" : "VEC3"
        },
        {
            "bufferView" : 10,
            "componentType" : 5126,
            "count" : 195,
            "type" : "VEC3"
        },
        {
            "bufferView" : 11,
            "componentType" : 5126,
            "count" : 195,
            "type" : "VEC2"
        },
        {
            "bufferView" : 12,
            "componentType" : 5123,
            "count" : 456,
            "type" : "SCALAR"
        }
    ],
    "bufferViews" : [
        {
            "buffer" : 0,
            "byteLength" : 1368,
            "byteOffset" : 0
        },
        {
            "buffer" : 0,
            "byteLength" : 1368,
            "byteOffset" : 1368
        },
        {
            "buffer" : 0,
            "byteLength" : 912,
            "byteOffset" : 2736
        },
        {
            "buffer" : 0,
            "byteLength" : 540,
            "byteOffset" : 3648
        },
        {
            "buffer" : 0,
            "byteLength" : 48,
            "byteOffset" : 4188
        },
        {
            "buffer" : 0,
            "byteLength" : 48,
            "byteOffset" : 4236
        },
        {
            "buffer" : 0,
            "byteLength" : 32,
            "byteOffset" : 4284
        },
        {
            "buffer" : 0,
            "byteLength" : 12,
            "byteOffset" : 4316
        },
        {
            "buffer" : 0,
            "byteLength" : 38275,
            "byteOffset" : 4328
        },
        {
            "buffer" : 0,
            "byteLength" : 2340,
            "byteOffset" : 42604
        },
        {
            "buffer" : 0,
            "byteLength" : 2340,
            "byteOffset" : 44944
        },
        {
            "buffer" : 0,
            "byteLength" : 1560,
            "byteOffset" : 47284
        },
        {
            "buffer" : 0,
            "byteLength" : 912,
            "byteOffset" : 48844
        }
    ],
    "samplers" : [
        {
            "magFilter" : 9729,
            "minFilter" : 9987
        }
    ],
    "buffers" : [
        {
            "byteLength" : 49756,
            "uri" : "data:application/octet-stream;base64,"
        }
    ]
}
