{
    "asset" : {
        "generator" : "Khronos glTF Blender I/O v1.6.16",
        "version" : "2.0"
    },
    "scene" : 0,
    "scenes" : [
        {
            "name" : "Scene",
            "nodes" : [
                0,
                1,
                2
            ]
        }
    ],
    "nodes" : [
        {
            "mesh" : 0,
            "name" : "Cube.005",
            "rotation" : [
                0.7071068286895752,
                0,
                0,
                0.7071068286895752
            ],
            "scale" : [
                0.6531654596328735,
                0.017370641231536865,
                0.6941130757331848
            ]
        },
        {
            "mesh" : 1,
            "name" : "Text.002",
            "rotation" : [
                0.6756199598312378,
                -0.20865684747695923,
                -0.2086568921804428,
                0.6756199598312378
            ],
            "scale" : [
                0.0665845051407814,
                0.0665845051407814,
                0.0665845051407814
            ],
            "translation" : [
                0.07527272403240204,
                -0.6940423250198364,
                0.05380544438958168
            ]
        },
        {
            "mesh" : 2,
            "name" : "Text.003",
            "rotation" : [
                0.7071068286895752,
                0,
                0,
                0.7071068286895752
            ],
            "scale" : [
                0.0665845051407814,
                0.0665845051407814,
                0.0665845051407814
            ],
            "translation" : [
                -0.16334617137908936,
                -0.6747086644172668,
                0.05380544811487198
            ]
        }
    ],
    "materials" : [
        {
            "doubleSided" : true,
            "name" : "Frame",
            "pbrMetallicRoughness" : {
                "baseColorFactor" : [
                    0.007220609579235315,
                    0.007220609579235315,
                    0.007220609579235315,
                    1
                ],
                "metallicFactor" : 0,
                "roughnessFactor" : 0.515702486038208
            }
        },
        {
            "doubleSided" : true,
            "name" : "Picture GameDesign",
            "pbrMetallicRoughness" : {
                "baseColorTexture" : {
                    "index" : 0
                },
                "metallicFactor" : 0,
                "roughnessFactor" : 0.7768595218658447
            }
        }
    ],
    "meshes" : [
        {
            "name" : "Cube.006",
            "primitives" : [
                {
                    "attributes" : {
                        "POSITION" : 0,
                        "NORMAL" : 1,
                        "TEXCOORD_0" : 2
                    },
                    "indices" : 3,
                    "material" : 0
                },
                {
                    "attributes" : {
                        "POSITION" : 4,
                        "NORMAL" : 5,
                        "TEXCOORD_0" : 6
                    },
                    "indices" : 7,
                    "material" : 1
                }
            ]
        },
        {
            "name" : "Text.003",
            "primitives" : [
                {
                    "attributes" : {
                        "POSITION" : 8,
                        "NORMAL" : 9,
                        "TEXCOORD_0" : 10
                    },
                    "indices" : 11
                }
            ]
        },
        {
            "name" : "Text.004",
            "primitives" : [
                {
                    "attributes" : {
                        "POSITION" : 12,
                        "NORMAL" : 13,
                        "TEXCOORD_0" : 14
                    },
                    "indices" : 15
                }
            ]
        }
    ],
    "textures" : [
        {
            "sampler" : 0,
            "source" : 0
        }
    ],
    "images" : [
        {
            "bufferView" : 8,
            "mimeType" : "image/png",
            "name" : "gameDesign"
        }
    ],
    "accessors" : [
        {
            "bufferView" : 0,
            "componentType" : 5126,
            "count" : 114,
            "max" : [
                1.887938141822815,
                2.9296875,
                0.999879777431488
            ],
            "min" : [
                -1.8905192613601685,
                -2.83203125,
                -1.0001201629638672
            ],
            "type" : "VEC3"
        },
        {
            "bufferView" : 1,
            "componentType" : 5126,
            "count" : 114,
            "type" : "VEC3"
        },
        {
            "bufferView" : 2,
            "componentType" : 5126,
            "count" : 114,
            "type" : "VEC2"
        },
        {
            "bufferView" : 3,
            "componentType" : 5123,
            "count" : 270,
            "type" : "SCALAR"
        },
        {
            "bufferView" : 4,
            "componentType" : 5126,
            "count" : 4,
            "max" : [
                1.7697739601135254,
                -0.130859375,
                0.8999037742614746
            ],
            "min" : [
                -1.7671928405761719,
                -0.130859375,
                -0.8996636271476746
            ],
            "type" : "VEC3"
        },
        {
            "bufferView" : 5,
            "componentType" : 5126,
            "count" : 4,
            "type" : "VEC3"
        },
        {
            "bufferView" : 6,
            "componentType" : 5126,
            "count" : 4,
            "type" : "VEC2"
        },
        {
            "bufferView" : 7,
            "componentType" : 5123,
            "count" : 6,
            "type" : "SCALAR"
        },
        {
            "bufferView" : 9,
            "componentType" : 5126,
            "count" : 354,
            "max" : [
                0.42100003361701965,
                0,
                0.23000000417232513
            ],
            "min" : [
                0,
                0,
                -0.4490000307559967
            ],
            "type" : "VEC3"
        },
        {
            "bufferView" : 10,
            "componentType" : 5126,
            "count" : 354,
            "type" : "VEC3"
        },
        {
            "bufferView" : 11,
            "componentType" : 5126,
            "count" : 354,
            "type" : "VEC2"
        },
        {
            "bufferView" : 12,
            "componentType" : 5123,
            "count" : 774,
            "type" : "SCALAR"
        },
        {
            "bufferView" : 13,
            "componentType" : 5126,
            "count" : 354,
            "max" : [
                3.0970005989074707,
                0,
                0.009000000543892384
            ],
            "min" : [
                0.8600001335144043,
                0,
                -0.4580000340938568
            ],
            "type" : "VEC3"
        },
        {
            "bufferView" : 14,
            "componentType" : 5126,
            "count" : 354,
            "type" : "VEC3"
        },
        {
            "bufferView" : 15,
            "componentType" : 5126,
            "count" : 354,
            "type" : "VEC2"
        },
        {
            "bufferView" : 16,
            "componentType" : 5123,
            "count" : 819,
            "type" : "SCALAR"
        }
    ],
    "bufferViews" : [
        {
            "buffer" : 0,
            "byteLength" : 1368,
            "byteOffset" : 0
        },
        {
            "buffer" : 0,
            "byteLength" : 1368,
            "byteOffset" : 1368
        },
        {
            "buffer" : 0,
            "byteLength" : 912,
            "byteOffset" : 2736
        },
        {
            "buffer" : 0,
            "byteLength" : 540,
            "byteOffset" : 3648
        },
        {
            "buffer" : 0,
            "byteLength" : 48,
            "byteOffset" : 4188
        },
        {
            "buffer" : 0,
            "byteLength" : 48,
            "byteOffset" : 4236
        },
        {
            "buffer" : 0,
            "byteLength" : 32,
            "byteOffset" : 4284
        },
        {
            "buffer" : 0,
            "byteLength" : 12,
            "byteOffset" : 4316
        },
        {
            "buffer" : 0,
            "byteLength" : 121677,
            "byteOffset" : 4328
        },
        {
            "buffer" : 0,
            "byteLength" : 4248,
            "byteOffset" : 126008
        },
        {
            "buffer" : 0,
            "byteLength" : 4248,
            "byteOffset" : 130256
        },
        {
            "buffer" : 0,
            "byteLength" : 2832,
            "byteOffset" : 134504
        },
        {
            "buffer" : 0,
            "byteLength" : 1548,
            "byteOffset" : 137336
        },
        {
            "buffer" : 0,
            "byteLength" : 4248,
            "byteOffset" : 138884
        },
        {
            "buffer" : 0,
            "byteLength" : 4248,
            "byteOffset" : 143132
        },
        {
            "buffer" : 0,
            "byteLength" : 2832,
            "byteOffset" : 147380
        },
        {
            "buffer" : 0,
            "byteLength" : 1638,
            "byteOffset" : 150212
        }
    ],
    "samplers" : [
        {
            "magFilter" : 9729,
            "minFilter" : 9987
        }
    ],
    "buffers" : [
        {
            "byteLength" : 151852,
            "uri" : "data:application/octet-stream;base64,"
        }
    ]
}
