{
	"asset":{
		"generator":"Khronos glTF Blender I/O v3.5.30",
		"version":"2.0"
	},
	"scene":0,
	"scenes":[
		{
			"name":"Scene",
			"nodes":[
				0,
				1
			]
		}
	],
	"nodes":[
		{
			"mesh":0,
			"name":"hand",
			"rotation":[
				0.6802977919578552,
				-0.4255279004573822,
				-0.532009482383728,
				0.2703457772731781
			],
			"scale":[
				0.7998756170272827,
				0.7998756170272827,
				0.7998756170272827
			],
			"translation":[
				-2.804105281829834,
				4.803024768829346,
				-4.1546630859375
			]
		},
		{
			"mesh":1,
			"name":"Cyborg Hand",
			"rotation":[
				0,
				0,
				-0.7071066498756409,
				0.70710688829422
			],
			"scale":[
				0.1799950897693634,
				0.1799950897693634,
				0.1799950897693634
			],
			"translation":[
				-16.77079200744629,
				4.761360168457031,
				0
			]
		}
	],
	"materials":[
		{
			"doubleSided":true,
			"name":"Material.001",
			"pbrMetallicRoughness":{
				"baseColorFactor":[
					0.3493259847164154,
					0.24748685956001282,
					0.16606636345386505,
					1
				],
				"metallicFactor":0,
				"roughnessFactor":0.7568811178207397
			}
		},
		{
			"doubleSided":true,
			"name":"Material.002",
			"pbrMetallicRoughness":{
				"baseColorFactor":[
					0.4336475431919098,
					0.4336475431919098,
					0.4336475431919098,
					1
				],
				"roughnessFactor":0.5366972088813782
			}
		}
	],
	"meshes":[
		{
			"name":"hand",
			"primitives":[
				{
					"attributes":{
						"POSITION":0,
						"NORMAL":1
					},
					"indices":2,
					"material":0
				}
			]
		},
		{
			"name":"Cyborg Hand",
			"primitives":[
				{
					"attributes":{
						"POSITION":3,
						"NORMAL":4
					},
					"indices":5,
					"material":1
				}
			]
		}
	],
	"accessors":[
		{
			"bufferView":0,
			"componentType":5126,
			"count":10244,
			"max":[
				11.254922866821289,
				11.690505981445312,
				-0.8292236328125
			],
			"min":[
				1.2512245178222656,
				-2.28413462638855,
				-23.868473052978516
			],
			"type":"VEC3"
		},
		{
			"bufferView":1,
			"componentType":5126,
			"count":10244,
			"type":"VEC3"
		},
		{
			"bufferView":2,
			"componentType":5123,
			"count":61293,
			"type":"SCALAR"
		},
		{
			"bufferView":3,
			"componentType":5126,
			"count":16112,
			"max":[
				33.98821258544922,
				129.02642822265625,
				11.89195442199707
			],
			"min":[
				-11.765434265136719,
				0.3481893539428711,
				-47.546329498291016
			],
			"type":"VEC3"
		},
		{
			"bufferView":4,
			"componentType":5126,
			"count":16112,
			"type":"VEC3"
		},
		{
			"bufferView":5,
			"componentType":5123,
			"count":95736,
			"type":"SCALAR"
		}
	],
	"bufferViews":[
		{
			"buffer":0,
			"byteLength":122928,
			"byteOffset":0,
			"target":34962
		},
		{
			"buffer":0,
			"byteLength":122928,
			"byteOffset":122928,
			"target":34962
		},
		{
			"buffer":0,
			"byteLength":122586,
			"byteOffset":245856,
			"target":34963
		},
		{
			"buffer":0,
			"byteLength":193344,
			"byteOffset":368444,
			"target":34962
		},
		{
			"buffer":0,
			"byteLength":193344,
			"byteOffset":561788,
			"target":34962
		},
		{
			"buffer":0,
			"byteLength":191472,
			"byteOffset":755132,
			"target":34963
		}
	],
	"buffers":[
		{
			"byteLength":946604,
			"uri":"data:application/octet-stream;base64,"
		}
	]
}
