{
	"asset":{
		"generator":"Khronos glTF Blender I/O v3.5.30",
		"version":"2.0"
	},
	"scene":0,
	"scenes":[
		{
			"name":"Scene",
			"nodes":[
				0
			]
		}
	],
	"nodes":[
		{
			"mesh":0,
			"name":"Final.003"
		}
	],
	"materials":[
		{
			"doubleSided":true,
			"name":"LevTexture",
			"pbrMetallicRoughness":{
				"baseColorTexture":{
					"index":0
				},
				"metallicFactor":0,
				"roughnessFactor":0.8715596199035645
			}
		}
	],
	"meshes":[
		{
			"name":"RetopoFlow.009",
			"primitives":[
				{
					"attributes":{
						"COLOR_0":0,
						"POSITION":1,
						"TEXCOORD_0":2,
						"NORMAL":3
					},
					"indices":4,
					"material":0
				}
			]
		}
	],
	"textures":[
		{
			"sampler":0,
			"source":0
		}
	],
	"images":[
		{
			"bufferView":5,
			"mimeType":"image/png",
			"name":"Lev Texture"
		}
	],
	"accessors":[
		{
			"bufferView":0,
			"componentType":5123,
			"count":25341,
			"normalized":true,
			"type":"VEC4"
		},
		{
			"bufferView":1,
			"componentType":5126,
			"count":25341,
			"max":[
				1.6562201976776123,
				3.647533893585205,
				0.9002547264099121
			],
			"min":[
				-1.65452241897583,
				-0.010226459242403507,
				-0.6670019626617432
			],
			"type":"VEC3"
		},
		{
			"bufferView":2,
			"componentType":5126,
			"count":25341,
			"type":"VEC2"
		},
		{
			"bufferView":3,
			"componentType":5126,
			"count":25341,
			"type":"VEC3"
		},
		{
			"bufferView":4,
			"componentType":5123,
			"count":137868,
			"type":"SCALAR"
		}
	],
	"bufferViews":[
		{
			"buffer":0,
			"byteLength":202728,
			"byteOffset":0,
			"target":34962
		},
		{
			"buffer":0,
			"byteLength":304092,
			"byteOffset":202728,
			"target":34962
		},
		{
			"buffer":0,
			"byteLength":202728,
			"byteOffset":506820,
			"target":34962
		},
		{
			"buffer":0,
			"byteLength":304092,
			"byteOffset":709548,
			"target":34962
		},
		{
			"buffer":0,
			"byteLength":275736,
			"byteOffset":1013640,
			"target":34963
		},
		{
			"buffer":0,
			"byteLength":374455,
			"byteOffset":1289376
		}
	],
	"samplers":[
		{
			"magFilter":9729,
			"minFilter":9987
		}
	],
	"buffers":[
		{
			"byteLength":1663832,
			"uri":"data:application/octet-stream;base64,"
		}
	]
}
