{
    "asset" : {
        "generator" : "Khronos glTF Blender I/O v1.6.16",
        "version" : "2.0"
    },
    "scene" : 0,
    "scenes" : [
        {
            "name" : "Scene",
            "nodes" : [
                0
            ]
        }
    ],
    "nodes" : [
        {
            "mesh" : 0,
            "name" : "VR",
            "rotation" : [
                -0.7071068286895752,
                0,
                0,
                0.7071068286895752
            ],
            "translation" : [
                0,
                0,
                -0.468467116355896
            ]
        }
    ],
    "materials" : [
        {
            "doubleSided" : true,
            "name" : "Material",
            "pbrMetallicRoughness" : {
                "baseColorFactor" : [
                    0.4634748697280884,
                    0.46948936581611633,
                    0.48780518770217896,
                    1
                ],
                "metallicFactor" : 0,
                "roughnessFactor" : 0.3677690029144287
            }
        },
        {
            "doubleSided" : true,
            "name" : "Material.001",
            "pbrMetallicRoughness" : {
                "baseColorFactor" : [
                    0.011134707368910313,
                    0.011134707368910313,
                    0.011134707368910313,
                    1
                ],
                "metallicFactor" : 0,
                "roughnessFactor" : 0.5
            }
        }
    ],
    "meshes" : [
        {
            "name" : "Cube.000",
            "primitives" : [
                {
                    "attributes" : {
                        "POSITION" : 0,
                        "NORMAL" : 1,
                        "TEXCOORD_0" : 2
                    },
                    "indices" : 3,
                    "material" : 0
                },
                {
                    "attributes" : {
                        "POSITION" : 4,
                        "NORMAL" : 5,
                        "TEXCOORD_0" : 6
                    },
                    "indices" : 7,
                    "material" : 1
                }
            ]
        }
    ],
    "accessors" : [
        {
            "bufferView" : 0,
            "componentType" : 5126,
            "count" : 154,
            "max" : [
                1.4634016752243042,
                0.7385371923446655,
                1.3194003105163574
            ],
            "min" : [
                -1.4634016752243042,
                -0.7441899180412292,
                -0.4024062156677246
            ],
            "type" : "VEC3"
        },
        {
            "bufferView" : 1,
            "componentType" : 5126,
            "count" : 154,
            "type" : "VEC3"
        },
        {
            "bufferView" : 2,
            "componentType" : 5126,
            "count" : 154,
            "type" : "VEC2"
        },
        {
            "bufferView" : 3,
            "componentType" : 5123,
            "count" : 420,
            "type" : "SCALAR"
        },
        {
            "bufferView" : 4,
            "componentType" : 5126,
            "count" : 5476,
            "max" : [
                1.4634016752243042,
                1.8954100608825684,
                1.3405683040618896
            ],
            "min" : [
                -1.4634016752243042,
                -0.7441899180412292,
                -3.112586498260498
            ],
            "type" : "VEC3"
        },
        {
            "bufferView" : 5,
            "componentType" : 5126,
            "count" : 5476,
            "type" : "VEC3"
        },
        {
            "bufferView" : 6,
            "componentType" : 5126,
            "count" : 5476,
            "type" : "VEC2"
        },
        {
            "bufferView" : 7,
            "componentType" : 5123,
            "count" : 16764,
            "type" : "SCALAR"
        }
    ],
    "bufferViews" : [
        {
            "buffer" : 0,
            "byteLength" : 1848,
            "byteOffset" : 0
        },
        {
            "buffer" : 0,
            "byteLength" : 1848,
            "byteOffset" : 1848
        },
        {
            "buffer" : 0,
            "byteLength" : 1232,
            "byteOffset" : 3696
        },
        {
            "buffer" : 0,
            "byteLength" : 840,
            "byteOffset" : 4928
        },
        {
            "buffer" : 0,
            "byteLength" : 65712,
            "byteOffset" : 5768
        },
        {
            "buffer" : 0,
            "byteLength" : 65712,
            "byteOffset" : 71480
        },
        {
            "buffer" : 0,
            "byteLength" : 43808,
            "byteOffset" : 137192
        },
        {
            "buffer" : 0,
            "byteLength" : 33528,
            "byteOffset" : 181000
        }
    ],
    "buffers" : [
        {
            "byteLength" : 214528,
            "uri" : "data:application/octet-stream;base64,"
        }
    ]
}
